<svg xmlns="http://www.w3.org/2000/svg" width="960" height="600" viewBox="0 0 960 600"><defs><pattern id="grid" width="32" height="32" patternUnits="userSpaceOnUse"><path d="M32 0H0V32" fill="none" stroke="#c0b0d9" stroke-opacity=".25"/></pattern></defs><rect width="960" height="600" fill="#f1eefa"/><rect width="960" height="600" fill="url(#grid)"/><g font-family="Arial,Helvetica,sans-serif" fill="#644598"><rect width="960" height="48" fill="#fcfaff"/><circle cx="24" cy="24" r="5" fill="#644598" opacity=".2"/><circle cx="42" cy="24" r="5" fill="#644598" opacity=".2"/><circle cx="60" cy="24" r="5" fill="#644598" opacity=".2"/><text x="480" y="28" text-anchor="middle" font-size="12" opacity=".5">comp-soc.com</text><text x="56" y="102" font-size="22" font-weight="bold">comp-soc</text><text x="904" y="100" text-anchor="end" font-size="13">Events     Society     Join us ↗</text><text x="480" y="238" text-anchor="middle" font-size="54" font-weight="bold">Good people.</text><text x="480" y="298" text-anchor="middle" font-size="54" font-weight="bold">Great things to build.</text><text x="480" y="341" text-anchor="middle" font-size="17" opacity=".7">Edinburgh’s student computing community</text><rect x="373" y="376" width="214" height="46" rx="23" fill="#644598"/><text x="480" y="405" text-anchor="middle" font-size="14" fill="#fff">Find your next event ↗</text><g fill="none" stroke="#a994cc" stroke-width="2"><path d="M106 218l-25 20 25 20m52-40 25 20-25 20m-20-50-15 60"/><rect x="785" y="375" width="65" height="65" rx="14" transform="rotate(12 817 407)"/><path d="m118 437 16-28 16 28Z"/></g><text x="916" y="570" text-anchor="end" font-size="11" opacity=".45">Preview placeholder</text></g></svg>